<?xml version="1.0" encoding="UTF-8" standalone="no"?>
<!DOCTYPE svg PUBLIC "-//W3C//DTD SVG 1.1//EN" "http://www.w3.org/Graphics/SVG/1.1/DTD/svg11.dtd">
<svg xmlns="http://www.w3.org/2000/svg" version="1.1" viewBox="0.00 0.00 1448.00 1448.00">
<path fill="#ffc303" d="
  M 774.03 400.37
  Q 773.62 403.48 772.23 412.54
  C 771.67 416.19 770.36 418.93 770.27 422.29
  Q 770.26 422.56 769.65 426.20
  Q 768.09 435.38 767.66 437.17
  Q 767.37 438.35 765.37 443.46
  C 762.51 450.79 754.41 455.66 747.23 456.42
  Q 743.28 456.83 737.53 454.84
  Q 733.60 453.47 729.29 449.29
  Q 720.83 441.09 715.29 433.20
  Q 712.47 429.18 706.85 420.22
  Q 703.69 415.17 699.48 406.62
  Q 689.38 386.12 667.18 341.81
  Q 666.16 339.76 661.89 328.59
  Q 658.49 319.71 656.36 315.48
  C 652.46 307.75 646.80 296.84 643.09 286.88
  Q 639.94 278.39 638.56 275.30
  C 635.21 267.76 632.80 260.41 629.22 252.12
  Q 624.21 240.53 618.64 223.42
  Q 616.70 217.45 613.97 211.18
  Q 609.67 201.31 608.92 199.07
  Q 596.92 163.22 596.33 161.44
  Q 590.88 145.13 589.80 138.69
  Q 589.17 134.90 591.96 128.98
  A 3.31 3.29 -89.7 0 1 593.54 127.41
  C 596.44 126.06 600.08 126.07 602.98 125.05
  Q 606.27 123.89 607.49 123.72
  Q 622.01 121.71 622.75 121.69
  Q 626.89 121.54 634.14 119.69
  Q 644.02 117.17 655.25 116.50
  C 661.15 116.15 667.88 114.75 674.00 114.85
  Q 681.32 114.96 746.92 114.95
  C 754.90 114.95 761.04 114.42 767.24 115.10
  Q 783.22 116.86 784.73 117.18
  C 790.10 118.31 798.90 118.50 804.93 120.13
  Q 808.47 121.09 814.89 122.12
  Q 818.06 122.62 818.84 126.20
  Q 820.71 134.71 819.34 142.04
  Q 818.25 147.87 817.86 151.28
  Q 817.20 156.92 815.65 162.95
  Q 813.72 170.50 813.04 174.89
  C 812.00 181.65 811.25 187.53 809.72 194.96
  Q 808.99 198.51 808.39 202.95
  Q 806.92 213.85 804.42 222.38
  Q 803.59 225.20 802.12 237.78
  C 801.51 243.05 799.86 247.67 799.18 252.58
  C 797.46 265.09 796.40 272.40 794.39 279.22
  A 5.19 5.01 53.9 0 0 794.18 280.74
  C 794.21 283.43 793.34 285.85 793.22 288.02
  Q 792.75 296.59 790.44 303.89
  C 789.44 307.03 789.53 310.27 789.14 313.33
  Q 787.51 326.04 784.98 337.25
  Q 784.80 338.06 784.83 339.99
  A 6.28 6.13 -38.9 0 1 784.64 341.59
  C 783.44 346.51 782.87 352.23 781.40 357.88
  Q 779.21 366.29 778.42 374.00
  Q 777.81 379.90 776.28 386.26
  Q 775.39 389.95 774.03 400.37
  Z"
/>
<path fill="#ffc303" d="
  M 887.66 146.86
  C 888.74 141.91 898.27 145.27 902.52 146.48
  Q 907.88 148.01 910.33 148.94
  C 914.84 150.65 918.91 151.67 923.04 153.31
  Q 932.05 156.90 949.20 163.82
  Q 961.52 168.78 977.02 176.77
  Q 985.76 181.28 989.08 183.53
  C 992.73 186.01 996.63 187.78 1000.08 189.93
  Q 1011.79 197.24 1021.26 202.79
  C 1024.59 204.74 1027.53 207.51 1030.84 209.44
  Q 1036.03 212.45 1040.88 216.11
  C 1045.29 219.44 1050.31 221.36 1054.14 224.84
  Q 1058.23 228.55 1062.11 231.28
  C 1069.50 236.46 1073.91 240.39 1083.72 248.46
  C 1086.92 251.09 1091.68 253.16 1092.72 257.42
  C 1093.51 260.67 1089.01 268.12 1087.17 270.41
  C 1084.83 273.32 1080.11 279.50 1076.13 283.33
  C 1072.73 286.61 1067.94 290.90 1064.44 294.88
  Q 1063.53 295.91 1059.37 301.11
  C 1054.30 307.45 1048.67 315.19 1042.25 321.72
  C 1032.01 332.14 1025.33 341.01 1014.22 355.23
  Q 1005.28 366.67 999.28 373.57
  Q 989.23 385.13 983.99 391.66
  Q 978.24 398.82 966.52 412.51
  Q 962.02 417.76 957.66 423.53
  Q 955.29 426.67 954.08 427.76
  C 952.26 429.41 951.28 431.53 949.41 433.53
  C 944.87 438.39 940.08 443.27 935.67 448.61
  C 927.24 458.84 919.07 469.35 910.29 480.39
  Q 901.81 491.06 899.60 493.54
  Q 891.60 502.50 879.84 509.82
  C 877.53 511.27 873.51 512.20 870.69 511.65
  Q 860.79 509.75 856.51 501.09
  C 853.04 494.07 850.13 488.13 849.64 480.97
  C 849.41 477.56 848.71 472.51 848.72 467.66
  Q 848.79 430.27 848.66 410.75
  Q 848.65 410.36 848.76 407.01
  C 848.86 403.83 850.00 400.22 850.11 398.16
  Q 850.32 394.16 850.86 390.61
  Q 852.24 381.43 853.21 370.01
  C 853.81 362.96 852.87 353.04 853.97 346.00
  Q 855.44 336.66 855.21 335.26
  Q 855.10 334.60 855.83 332.01
  A 6.89 6.83 56.0 0 0 856.05 330.85
  Q 857.70 312.69 859.52 298.63
  C 859.95 295.29 859.65 292.00 860.55 288.63
  A 4.55 4.42 55.5 0 0 860.71 287.69
  Q 861.44 278.22 862.66 272.14
  Q 863.96 265.71 864.88 257.80
  Q 866.14 247.06 866.92 243.42
  Q 869.15 233.14 869.56 229.49
  Q 870.13 224.36 871.73 218.04
  C 873.61 210.62 874.73 201.19 876.48 194.32
  C 877.85 188.93 878.31 183.81 879.73 177.94
  Q 881.37 171.15 882.96 164.13
  C 884.31 158.09 886.40 152.59 887.66 146.86
  Z"
/>
<path fill="#ffc303" d="
  M 522.80 150.69
  Q 524.03 151.68 524.64 153.11
  Q 526.62 157.71 528.37 162.88
  Q 529.04 164.85 536.69 188.81
  Q 538.06 193.11 540.83 199.22
  Q 543.91 206.00 545.17 209.54
  Q 549.14 220.64 554.40 236.87
  Q 557.57 246.64 562.18 256.99
  Q 566.01 265.59 571.68 283.76
  Q 578.67 306.15 583.39 317.45
  Q 590.45 334.34 591.89 339.55
  Q 592.90 343.20 594.07 346.11
  C 596.30 351.66 596.98 355.65 599.04 361.38
  Q 600.43 365.25 601.73 369.21
  Q 604.60 377.99 607.62 385.18
  Q 613.74 399.78 615.04 403.95
  Q 617.73 412.61 618.67 414.96
  Q 620.52 419.54 621.12 422.14
  C 621.87 425.39 623.62 428.45 624.48 431.70
  Q 628.27 446.02 628.50 458.01
  Q 628.62 464.48 624.96 470.90
  A 2.90 2.63 -10.2 0 1 624.52 471.47
  L 619.96 476.03
  A 1.26 1.20 7.8 0 1 619.64 476.26
  Q 612.68 479.75 608.78 479.23
  Q 600.88 478.16 592.77 474.05
  Q 585.35 470.31 577.48 466.22
  Q 575.64 465.26 569.55 462.28
  Q 561.29 458.22 552.94 453.08
  Q 546.65 449.20 523.78 435.50
  Q 520.27 433.39 516.79 430.84
  C 513.11 428.15 508.92 426.14 505.21 423.20
  Q 501.74 420.46 500.84 419.93
  Q 493.16 415.48 485.56 409.98
  Q 482.62 407.86 479.52 406.05
  C 476.76 404.44 474.22 402.08 471.59 400.56
  Q 463.61 395.94 455.69 389.52
  C 451.74 386.31 447.64 384.07 443.65 380.92
  Q 437.02 375.67 430.20 371.55
  A 8.20 8.03 -7.8 0 1 429.11 370.74
  Q 426.82 368.69 424.83 367.49
  Q 421.36 365.39 420.41 364.45
  C 418.42 362.48 415.13 361.02 412.80 359.03
  Q 407.02 354.10 402.06 351.13
  Q 396.58 347.84 391.21 343.62
  Q 378.28 333.47 373.29 329.33
  Q 361.53 319.54 353.58 313.56
  Q 348.91 310.04 333.73 297.65
  Q 327.14 292.27 321.55 283.73
  C 319.10 279.99 321.17 276.97 323.80 273.76
  A 3.35 3.30 -87.4 0 1 324.49 273.12
  C 327.07 271.31 329.84 269.91 332.32 267.75
  Q 348.26 253.87 351.32 250.57
  Q 356.56 244.94 360.87 241.71
  C 367.03 237.10 373.11 230.89 379.08 227.35
  C 384.96 223.86 389.90 218.88 395.17 215.82
  Q 400.40 212.78 404.13 209.85
  Q 407.65 207.09 414.68 203.14
  A 6.28 5.84 -76.8 0 0 415.50 202.59
  Q 422.09 197.44 423.35 196.82
  C 428.68 194.21 432.61 191.29 437.50 188.73
  Q 451.23 181.55 461.13 175.43
  Q 468.25 171.04 472.13 169.65
  Q 472.18 169.63 483.64 164.89
  Q 492.18 161.35 497.88 158.51
  C 503.47 155.73 507.48 154.46 514.93 151.69
  Q 519.68 149.91 521.90 150.28
  A 2.00 1.90 -19.0 0 1 522.80 150.69
  Z"
/>
<path fill="#ffc303" d="
  M 1146.26 312.18
  Q 1149.28 313.01 1151.33 315.70
  Q 1158.33 324.91 1161.23 328.43
  A 11.08 11.01 12.2 0 1 1162.62 330.57
  C 1163.18 331.67 1163.95 333.17 1164.91 334.34
  C 1169.10 339.44 1171.62 342.08 1174.15 346.68
  Q 1177.82 353.34 1184.27 360.78
  A 8.95 8.86 -79.9 0 1 1185.36 362.36
  Q 1188.27 367.66 1192.56 372.67
  Q 1193.77 374.09 1196.62 379.66
  C 1198.25 382.85 1201.92 387.24 1203.59 391.17
  C 1205.09 394.72 1207.79 397.24 1209.54 400.82
  Q 1211.41 404.63 1213.64 407.89
  Q 1217.03 412.87 1218.12 415.37
  C 1219.45 418.41 1222.45 421.75 1224.33 425.35
  Q 1231.83 439.72 1232.79 442.21
  Q 1236.21 451.12 1240.37 461.46
  Q 1241.97 465.44 1243.15 468.49
  Q 1245.75 475.22 1247.88 480.14
  Q 1249.58 484.06 1250.11 485.70
  C 1250.95 488.31 1252.33 490.12 1253.28 493.01
  Q 1255.95 501.23 1255.98 504.24
  C 1256.02 508.90 1255.74 513.21 1250.99 515.12
  Q 1235.45 521.39 1228.18 524.40
  Q 1220.08 527.75 1194.82 535.84
  Q 1190.30 537.29 1178.36 542.32
  Q 1172.34 544.86 1158.17 549.74
  C 1144.38 554.48 1133.57 559.65 1120.63 563.88
  Q 1109.06 567.66 1094.72 572.40
  Q 1071.50 580.07 1063.36 583.41
  Q 1062.64 583.71 1057.84 585.78
  Q 1054.67 587.16 1030.71 595.64
  Q 1026.98 596.96 1018.90 600.16
  Q 1009.99 603.69 1001.06 605.81
  C 996.50 606.90 991.11 609.89 986.83 611.17
  C 983.26 612.24 978.84 614.39 974.54 615.64
  Q 964.73 618.50 953.33 621.09
  C 949.14 622.04 942.32 617.83 938.84 615.45
  A 2.73 2.73 0.0 0 1 938.03 614.59
  C 936.07 611.29 933.84 606.23 934.19 601.75
  C 934.87 592.86 937.21 584.53 941.40 576.26
  Q 947.84 563.57 948.64 562.41
  Q 952.22 557.19 954.36 553.50
  Q 957.86 547.43 959.86 545.07
  C 962.62 541.79 964.48 537.63 967.32 533.88
  C 971.94 527.78 975.02 522.04 979.27 516.06
  Q 982.96 510.87 993.33 494.85
  C 996.72 489.61 1000.21 485.09 1003.77 479.14
  C 1005.75 475.84 1007.96 473.17 1010.88 469.59
  C 1012.79 467.25 1013.59 465.65 1015.13 463.02
  A 6.38 6.08 82.3 0 1 1015.87 462.00
  Q 1021.28 455.97 1025.20 450.32
  Q 1030.90 442.12 1034.03 438.27
  Q 1043.34 426.82 1044.73 424.95
  Q 1048.62 419.73 1052.73 414.98
  Q 1055.29 412.03 1060.71 404.95
  A 6.20 5.75 -16.3 0 0 1061.41 403.78
  Q 1062.29 401.83 1062.63 401.39
  Q 1072.71 388.23 1081.46 378.72
  Q 1090.17 369.24 1096.12 361.91
  C 1104.37 351.73 1108.48 346.44 1115.96 338.99
  Q 1133.91 321.11 1135.56 319.56
  Q 1139.54 315.82 1140.05 315.30
  Q 1140.71 314.65 1145.28 312.28
  A 1.36 1.36 0.0 0 1 1146.26 312.18
  Z"
/>
<path fill="#ffc303" d="
  M 178.02 544.14
  C 173.96 542.81 173.47 538.93 174.24 535.30
  Q 178.34 516.15 184.68 499.32
  C 186.33 494.92 189.06 489.35 190.92 483.97
  Q 197.42 465.19 198.18 463.24
  C 200.58 457.13 203.91 450.28 205.96 446.21
  Q 218.87 420.70 231.08 396.07
  Q 234.30 389.58 236.50 386.36
  C 239.46 382.03 240.96 378.79 244.50 373.83
  C 247.24 370.00 252.63 360.81 257.91 354.71
  Q 259.90 352.41 260.88 350.76
  C 263.52 346.35 266.94 342.40 270.00 338.18
  A 3.22 3.20 20.9 0 1 272.95 336.87
  C 276.48 337.24 278.70 339.65 282.78 342.50
  Q 286.89 345.37 287.99 346.31
  C 290.89 348.81 296.02 353.23 300.67 356.16
  Q 307.65 360.54 313.70 366.08
  Q 317.23 369.32 321.60 372.30
  C 325.05 374.67 328.16 378.69 332.02 381.69
  C 335.19 384.15 342.69 391.04 348.72 394.66
  C 354.54 398.16 357.69 401.18 364.44 406.81
  C 366.89 408.86 370.75 410.58 373.50 412.80
  Q 377.44 415.99 380.95 419.18
  C 383.50 421.49 385.93 422.99 388.57 424.94
  Q 394.41 429.25 402.16 435.93
  C 409.98 442.67 417.93 447.95 426.02 455.02
  Q 429.30 457.89 436.42 463.28
  Q 444.07 469.08 455.28 478.46
  Q 456.27 479.29 460.18 481.74
  C 466.42 485.66 471.31 490.62 477.21 495.08
  Q 486.41 502.03 495.45 509.70
  C 498.73 512.48 502.03 514.46 505.43 516.39
  A 12.46 12.32 79.8 0 1 507.22 517.65
  Q 513.38 522.90 515.91 524.80
  Q 520.62 528.33 522.76 531.85
  Q 525.81 536.84 527.28 542.77
  C 529.09 550.08 520.48 556.35 514.78 560.09
  Q 510.91 562.61 504.29 564.33
  Q 490.88 567.82 479.01 568.86
  C 471.41 569.52 463.08 570.66 455.51 570.61
  C 435.83 570.49 422.29 571.31 405.25 569.58
  Q 390.72 568.10 374.76 566.26
  C 368.69 565.56 357.28 566.06 345.28 565.77
  Q 342.20 565.70 339.58 565.26
  C 334.01 564.34 328.26 564.38 321.99 563.67
  Q 312.32 562.59 307.41 562.01
  Q 299.88 561.13 294.08 561.01
  C 287.71 560.89 282.90 559.73 276.30 559.43
  Q 270.74 559.17 261.39 558.07
  Q 258.02 557.67 254.54 556.78
  C 246.77 554.81 239.59 554.48 227.82 553.34
  C 221.82 552.75 216.95 551.63 211.65 550.68
  A 28.10 27.10 4.5 0 0 207.70 550.25
  Q 197.33 549.86 191.94 548.36
  Q 185.06 546.45 178.02 544.14
  Z"
/>
<path fill="#ffc303" d="
  M 1279.35 811.79
  C 1278.20 814.52 1275.58 813.72 1273.31 813.18
  Q 1257.30 809.41 1240.25 807.03
  C 1236.04 806.45 1231.65 805.02 1227.40 804.48
  Q 1213.12 802.67 1209.18 801.60
  Q 1200.37 799.21 1192.92 798.35
  C 1185.25 797.47 1178.46 795.21 1170.93 794.42
  Q 1164.37 793.74 1160.69 792.80
  C 1153.71 791.02 1147.09 789.63 1140.06 788.73
  Q 1129.83 787.42 1126.40 786.64
  Q 1120.85 785.39 1112.76 784.66
  Q 1103.02 783.78 1095.29 781.87
  C 1087.54 779.95 1080.36 779.68 1072.51 778.45
  C 1068.04 777.76 1063.37 776.05 1059.02 775.55
  Q 1054.29 775.01 1047.91 774.30
  C 1042.86 773.75 1040.18 772.98 1035.66 771.82
  C 1030.50 770.48 1025.68 770.15 1018.35 769.32
  C 1013.54 768.78 1009.14 767.20 1004.42 766.56
  Q 982.37 763.55 978.01 762.41
  C 972.63 761.02 968.83 760.39 965.37 758.61
  C 959.72 755.70 947.18 747.64 949.63 739.80
  Q 951.73 733.07 952.31 731.41
  A 5.53 5.44 72.1 0 1 953.06 729.91
  L 958.14 722.81
  A 2.13 1.83 -88.0 0 1 958.48 722.44
  Q 964.45 717.48 970.61 712.62
  Q 973.32 710.49 976.07 709.00
  C 980.22 706.76 981.81 705.47 985.29 702.90
  Q 987.26 701.43 989.12 700.55
  C 994.00 698.23 997.96 694.74 1002.94 692.23
  Q 1011.01 688.15 1022.48 682.55
  C 1039.82 674.08 1054.12 666.52 1070.07 658.82
  C 1077.99 654.99 1081.46 653.76 1090.74 650.09
  C 1098.65 646.96 1106.10 642.91 1114.03 639.81
  Q 1131.58 632.94 1137.38 630.09
  Q 1143.30 627.17 1145.71 626.19
  Q 1162.50 619.41 1179.81 612.64
  C 1188.32 609.32 1196.68 605.40 1205.26 602.61
  C 1216.05 599.11 1227.33 594.66 1238.61 591.83
  Q 1246.32 589.90 1259.54 586.18
  C 1263.35 585.11 1272.61 580.63 1276.27 582.82
  Q 1277.30 583.43 1278.15 586.21
  Q 1281.05 595.63 1281.55 601.03
  C 1282.04 606.51 1283.05 610.79 1283.56 616.03
  C 1284.07 621.17 1284.88 623.96 1285.77 628.31
  C 1286.95 634.11 1286.52 640.49 1287.90 646.58
  C 1288.55 649.43 1288.19 652.87 1288.68 656.13
  Q 1289.85 663.91 1289.84 666.50
  Q 1289.81 707.11 1289.85 740.00
  C 1289.86 744.86 1288.92 748.26 1288.38 753.94
  Q 1287.90 758.95 1287.21 762.99
  C 1286.35 768.03 1286.41 773.88 1285.52 779.07
  Q 1284.68 784.03 1283.83 792.93
  C 1283.21 799.44 1281.70 806.14 1279.35 811.79
  Z"
/>
<path fill="#ffc303" d="
  M 170.49 842.97
  A 2.48 2.46 -3.1 0 1 168.73 841.40
  Q 166.85 836.17 165.11 828.96
  Q 164.10 824.80 160.69 806.47
  Q 159.69 801.13 159.35 796.47
  Q 158.86 789.90 157.99 786.47
  C 156.69 781.37 156.76 776.60 155.78 771.45
  Q 155.16 768.22 154.70 762.50
  C 154.17 755.88 153.43 753.21 153.43 747.75
  Q 153.47 694.80 153.38 667.07
  Q 153.31 647.35 154.18 639.97
  Q 156.10 623.66 158.63 613.17
  Q 159.41 609.94 162.33 609.80
  Q 168.89 609.49 175.34 611.01
  A 12.40 12.11 -35.7 0 0 177.37 611.32
  Q 186.94 612.01 195.40 613.85
  C 203.07 615.53 211.03 616.10 219.08 616.93
  C 223.26 617.36 226.66 618.15 230.27 619.08
  Q 232.46 619.65 234.76 619.79
  Q 236.28 619.88 253.59 621.83
  C 258.97 622.44 263.53 624.02 268.37 624.57
  Q 285.00 626.48 287.89 627.12
  Q 302.59 630.33 309.77 630.93
  Q 319.83 631.76 324.91 632.66
  Q 332.08 633.92 338.61 634.44
  Q 348.14 635.19 360.48 637.92
  Q 366.10 639.17 370.61 639.70
  C 376.99 640.44 383.19 640.62 388.73 641.86
  C 392.30 642.67 395.29 643.44 399.11 643.87
  Q 416.29 645.83 419.85 646.75
  C 421.66 647.22 423.79 647.78 425.38 648.01
  Q 444.91 650.84 448.03 651.43
  Q 448.32 651.49 462.01 655.17
  A 3.92 3.80 65.8 0 1 462.89 655.52
  L 471.51 660.06
  A 3.77 3.75 -84.1 0 1 473.37 662.36
  L 475.33 669.31
  A 4.90 4.50 39.0 0 1 475.51 670.52
  Q 475.57 675.12 475.35 681.50
  Q 475.31 682.55 472.06 690.22
  A 0.82 0.69 -18.1 0 1 471.91 690.46
  L 466.24 696.62
  A 9.33 6.90 -58.6 0 1 465.32 697.52
  Q 464.45 698.27 455.91 704.84
  Q 451.33 708.36 445.90 711.31
  Q 436.86 716.23 423.11 724.71
  Q 413.53 730.63 408.09 733.31
  Q 400.39 737.11 392.60 741.13
  C 388.86 743.06 385.03 745.87 381.09 747.91
  Q 380.21 748.37 376.54 750.74
  Q 371.19 754.21 363.37 758.11
  Q 341.10 769.20 323.67 777.88
  Q 298.14 790.60 285.40 797.16
  Q 278.24 800.84 268.23 804.66
  Q 256.22 809.23 252.03 811.33
  C 242.42 816.13 235.43 820.04 226.25 823.47
  Q 221.08 825.40 191.92 837.10
  C 186.18 839.40 181.17 841.70 175.73 842.91
  Q 172.86 843.55 170.49 842.97
  Z"
/>
<path fill="#ffc303" d="
  M 281.17 1076.80
  A 1.01 1.00 -58.0 0 0 281.02 1076.12
  Q 272.12 1062.18 262.18 1049.60
  Q 256.85 1042.84 254.81 1039.20
  C 252.12 1034.38 248.54 1030.08 245.31 1024.80
  Q 237.55 1012.10 229.51 998.66
  Q 228.04 996.20 226.44 993.77
  Q 224.51 990.86 223.49 988.84
  C 216.15 974.28 210.98 964.43 206.25 951.79
  C 202.74 942.39 199.26 936.03 195.16 927.07
  Q 194.83 926.34 192.37 919.71
  C 190.19 913.81 195.20 910.97 199.58 909.11
  C 204.15 907.17 208.12 904.99 213.27 902.56
  Q 218.93 899.90 222.97 898.39
  Q 233.82 894.33 243.30 889.91
  Q 254.59 884.65 263.52 881.22
  C 278.31 875.56 293.00 869.83 307.77 862.76
  C 314.27 859.65 323.23 856.72 330.32 853.43
  C 338.45 849.66 347.91 845.36 357.04 841.95
  C 362.39 839.96 367.09 837.59 371.84 835.89
  Q 382.25 832.17 392.16 827.55
  Q 403.30 822.36 406.42 821.25
  C 411.08 819.59 418.63 816.49 425.60 813.17
  C 437.30 807.59 446.26 804.29 459.33 798.91
  Q 466.93 795.78 478.18 792.39
  C 483.14 790.89 486.90 796.10 490.20 798.83
  A 4.65 4.61 -82.3 0 1 491.47 800.51
  Q 494.20 806.74 494.28 808.49
  Q 494.96 822.51 490.59 835.49
  Q 489.52 838.68 488.24 841.00
  C 486.98 843.29 486.20 845.48 484.76 848.23
  Q 478.12 861.00 465.07 887.11
  C 462.14 892.99 460.23 896.52 457.46 900.43
  Q 457.05 901.01 450.79 911.65
  Q 448.39 915.71 444.02 922.78
  Q 435.85 936.02 433.76 940.25
  Q 426.09 955.77 417.38 968.11
  Q 412.46 975.09 411.60 976.78
  C 409.43 981.00 406.80 984.32 404.63 988.82
  C 402.54 993.17 399.26 999.33 396.07 1004.47
  Q 388.97 1015.89 385.70 1021.93
  Q 383.88 1025.28 382.79 1026.82
  C 379.75 1031.10 377.43 1035.83 374.37 1039.94
  C 369.25 1046.80 364.68 1054.89 361.21 1060.94
  C 359.11 1064.59 357.33 1066.83 355.46 1070.15
  Q 348.93 1081.77 344.40 1088.77
  C 340.09 1095.44 338.47 1098.85 334.04 1105.79
  Q 333.06 1107.32 329.72 1114.64
  Q 327.85 1118.74 327.00 1124.06
  Q 324.99 1136.72 326.05 1149.00
  Q 326.65 1155.99 328.21 1160.83
  Q 328.87 1162.90 331.40 1163.57
  Q 331.74 1163.66 338.99 1165.27
  Q 341.86 1165.91 343.98 1165.46
  C 349.87 1164.22 356.16 1162.81 361.53 1159.11
  C 366.46 1155.70 370.60 1152.59 373.83 1147.84
  C 376.15 1144.41 378.71 1141.61 381.42 1137.46
  Q 390.29 1123.88 392.92 1119.84
  Q 396.77 1113.94 397.70 1112.68
  C 401.69 1107.34 404.91 1101.42 408.57 1096.46
  C 411.59 1092.36 413.34 1088.87 416.68 1084.31
  Q 419.98 1079.81 423.79 1073.31
  Q 424.86 1071.50 431.81 1062.74
  C 433.29 1060.88 433.71 1059.93 434.68 1058.17
  A 6.52 6.25 81.3 0 1 435.51 1056.99
  Q 441.63 1049.87 445.84 1043.07
  C 449.64 1036.94 453.21 1032.88 456.23 1027.39
  Q 458.01 1024.18 461.95 1018.68
  Q 464.39 1015.27 467.67 1009.94
  Q 468.99 1007.80 475.94 999.25
  A 6.14 6.10 78.5 0 0 476.57 998.29
  C 477.54 996.45 478.13 995.32 479.38 993.75
  Q 486.51 984.81 488.04 982.27
  Q 492.54 974.81 495.59 971.07
  Q 500.74 964.75 501.73 962.33
  A 3.94 3.92 78.5 0 1 502.60 961.01
  Q 506.51 957.03 515.94 943.67
  Q 518.22 940.45 527.05 929.36
  C 528.75 927.23 529.65 925.26 530.76 923.36
  A 9.82 9.58 81.2 0 1 531.90 921.76
  Q 536.39 916.64 542.05 908.83
  C 546.05 903.31 552.43 899.09 559.65 901.63
  Q 560.89 902.07 569.69 905.07
  C 576.64 907.44 577.49 915.55 579.61 922.99
  Q 580.95 927.71 581.68 932.94
  Q 582.70 940.20 584.17 954.24
  Q 585.07 962.80 585.02 966.27
  Q 584.88 976.48 584.95 1002.76
  C 584.98 1010.10 584.07 1015.70 583.50 1022.67
  Q 583.25 1025.70 582.58 1030.62
  Q 580.29 1047.72 580.24 1056.25
  Q 580.06 1091.10 580.28 1110.00
  Q 580.38 1118.38 578.86 1127.00
  Q 577.99 1131.96 575.80 1155.59
  C 575.11 1163.07 576.06 1170.05 574.52 1177.34
  Q 573.45 1182.41 573.44 1185.71
  C 573.40 1192.04 572.12 1197.06 571.83 1203.37
  Q 571.54 1209.74 570.81 1214.58
  Q 569.55 1223.00 569.23 1225.76
  C 568.84 1229.10 569.26 1232.05 568.62 1234.73
  C 567.21 1240.56 567.27 1249.05 565.79 1255.57
  Q 564.58 1260.93 563.78 1264.99
  Q 563.64 1265.67 562.44 1267.74
  A 1.75 1.73 1.7 0 1 561.72 1268.41
  Q 557.26 1270.65 555.26 1270.25
  Q 549.21 1269.05 542.54 1266.23
  Q 531.01 1261.35 528.31 1260.37
  Q 523.11 1258.49 514.41 1254.64
  Q 501.97 1249.14 488.99 1247.05
  Q 484.44 1246.31 480.23 1246.95
  Q 467.09 1248.92 453.80 1254.89
  C 445.96 1258.42 439.43 1260.81 431.85 1263.31
  Q 416.15 1268.50 381.57 1280.07
  C 375.33 1282.16 369.19 1285.10 362.99 1287.42
  C 350.30 1292.17 341.04 1294.88 329.80 1299.82
  C 317.99 1305.01 300.20 1310.41 291.88 1313.07
  Q 290.91 1313.39 271.25 1321.24
  Q 255.40 1327.57 245.21 1330.39
  Q 243.97 1330.73 233.72 1332.51
  C 229.20 1333.30 226.76 1332.63 222.70 1331.49
  A 3.57 3.54 84.2 0 1 220.48 1329.66
  C 215.90 1320.58 215.94 1312.49 218.54 1302.23
  C 222.76 1285.63 225.24 1274.29 229.50 1260.84
  C 231.27 1255.24 233.76 1247.22 235.12 1241.48
  C 237.84 1229.97 240.27 1218.70 244.09 1207.21
  Q 246.90 1198.74 249.02 1190.60
  Q 252.77 1176.23 252.99 1175.73
  Q 253.30 1175.05 256.11 1165.94
  Q 257.62 1161.03 258.82 1156.03
  Q 261.03 1146.85 265.61 1132.51
  C 267.90 1125.33 269.63 1117.44 271.52 1111.26
  Q 275.71 1097.56 277.80 1089.16
  A 4.81 4.65 53.5 0 0 277.94 1088.10
  Q 278.00 1083.85 280.90 1077.93
  Q 281.08 1077.57 281.17 1076.80
  Z"
/>
<path fill="#ffc303" d="
  M 1161.80 1079.20
  C 1159.40 1081.86 1156.27 1084.70 1152.66 1081.96
  Q 1149.62 1079.64 1148.48 1078.48
  A 10.86 10.82 82.3 0 0 1146.11 1076.67
  Q 1142.81 1074.80 1139.65 1072.10
  Q 1130.24 1064.05 1121.89 1057.75
  C 1115.10 1052.62 1109.00 1046.63 1102.90 1042.22
  Q 1093.88 1035.70 1087.58 1030.15
  Q 1081.39 1024.71 1076.21 1020.99
  Q 1069.41 1016.09 1064.52 1011.73
  Q 1058.99 1006.80 1049.38 999.59
  Q 1041.83 993.92 1033.28 986.52
  C 1029.74 983.45 1023.13 978.93 1018.39 974.96
  Q 1012.66 970.14 1012.25 969.74
  C 1009.81 967.34 1007.55 965.98 1004.79 963.62
  Q 983.58 945.59 980.25 943.11
  Q 978.07 941.49 977.89 941.34
  Q 975.88 939.67 972.65 937.39
  C 967.04 933.43 962.48 928.92 956.37 924.09
  C 952.21 920.80 947.42 916.39 944.10 913.09
  C 939.68 908.70 936.07 906.17 930.08 901.19
  C 928.04 899.49 925.87 898.19 923.63 896.02
  A 7.80 7.77 -7.0 0 0 922.32 895.00
  C 915.44 890.75 909.52 883.16 905.16 876.35
  Q 904.66 875.57 902.65 870.63
  A 8.08 7.28 -72.1 0 1 902.32 869.58
  C 901.65 866.55 903.21 861.46 905.45 858.64
  Q 906.82 856.93 908.95 853.57
  A 6.73 6.67 -88.2 0 1 911.26 851.38
  Q 919.51 846.70 928.50 845.53
  C 934.27 844.78 942.61 843.81 949.87 843.84
  Q 980.19 843.97 1008.75 843.79
  C 1011.80 843.77 1015.86 844.61 1018.33 844.90
  Q 1034.61 846.83 1047.75 848.06
  C 1053.97 848.65 1061.94 848.40 1068.72 849.29
  Q 1081.70 850.98 1089.90 851.63
  Q 1099.12 852.36 1111.07 853.99
  Q 1118.00 854.94 1134.46 856.63
  C 1140.60 857.25 1146.26 859.11 1152.62 859.75
  Q 1167.85 861.27 1171.38 862.18
  Q 1178.23 863.95 1182.31 864.38
  Q 1186.50 864.82 1191.18 865.77
  Q 1217.01 871.00 1240.76 875.61
  C 1246.68 876.76 1253.42 878.67 1257.46 880.33
  C 1260.18 881.45 1261.04 888.52 1260.31 891.01
  Q 1255.04 908.87 1251.25 918.78
  C 1250.11 921.75 1248.97 923.57 1248.29 926.32
  C 1247.64 928.96 1245.97 931.54 1244.91 934.23
  Q 1243.21 938.58 1241.81 942.43
  Q 1240.47 946.10 1239.76 947.24
  Q 1239.73 947.30 1237.79 952.11
  Q 1234.76 959.65 1230.51 967.49
  Q 1228.75 970.73 1222.81 982.70
  Q 1218.55 991.30 1212.80 1002.77
  C 1208.37 1011.61 1202.63 1019.82 1197.75 1028.42
  Q 1193.60 1035.74 1192.47 1037.39
  C 1189.32 1041.98 1186.61 1047.25 1182.85 1052.18
  Q 1180.23 1055.62 1178.44 1057.93
  Q 1177.81 1058.75 1176.44 1060.72
  Q 1169.73 1070.42 1161.80 1079.20
  Z"
/>
<path fill="#ffc303" d="
  M 1108.21 1137.81
  Q 1108.15 1140.33 1106.24 1142.93
  C 1105.25 1144.28 1102.66 1145.34 1101.40 1146.40
  Q 1090.07 1155.92 1077.38 1168.86
  C 1075.02 1171.27 1071.68 1173.93 1069.80 1175.28
  C 1063.56 1179.80 1058.00 1184.85 1051.46 1189.18
  C 1045.84 1192.91 1039.18 1199.09 1032.73 1203.30
  C 1028.88 1205.83 1026.33 1207.74 1022.96 1209.73
  C 1014.27 1214.86 1004.82 1220.86 995.73 1225.70
  Q 985.69 1231.06 976.98 1236.03
  C 966.85 1241.83 956.67 1245.43 945.85 1250.64
  C 938.72 1254.08 930.34 1257.02 925.17 1259.22
  Q 921.20 1260.91 919.04 1257.18
  Q 913.97 1248.41 911.48 1241.25
  Q 908.92 1233.89 906.53 1228.48
  C 903.75 1222.19 901.24 1217.66 899.02 1211.79
  Q 895.26 1201.88 890.01 1189.46
  Q 888.19 1185.16 886.68 1180.97
  C 884.47 1174.82 881.34 1168.25 878.25 1161.78
  Q 876.89 1158.93 873.65 1150.91
  Q 867.36 1135.37 862.17 1122.25
  Q 847.55 1085.34 844.93 1078.72
  Q 840.39 1067.25 835.42 1055.60
  C 834.17 1052.66 833.00 1048.26 831.52 1045.04
  C 827.70 1036.78 824.33 1026.90 820.76 1018.72
  Q 819.08 1014.86 815.84 1006.24
  Q 814.23 1001.97 809.43 990.41
  C 804.94 979.58 800.89 968.45 798.47 957.14
  A 4.45 4.42 -44.8 0 1 798.48 955.30
  Q 800.70 945.13 801.68 943.19
  C 804.34 937.95 812.22 936.43 818.69 935.46
  A 6.42 6.16 -43.8 0 1 820.42 935.46
  Q 833.16 937.34 845.25 942.93
  Q 848.56 944.45 851.70 946.76
  C 854.41 948.75 857.72 949.96 860.41 951.80
  Q 862.33 953.11 872.21 959.29
  Q 877.82 962.80 879.98 963.95
  C 884.57 966.41 888.06 969.66 892.84 972.54
  Q 909.57 982.61 922.30 990.20
  Q 923.87 991.14 927.95 994.43
  A 17.69 17.56 77.7 0 0 931.06 996.44
  Q 937.67 999.76 943.45 1005.31
  A 6.39 6.28 -6.2 0 0 944.50 1006.14
  Q 952.32 1011.08 958.82 1016.34
  C 963.28 1019.94 968.32 1022.21 972.77 1025.66
  Q 976.53 1028.57 981.82 1031.60
  C 986.47 1034.26 990.08 1038.10 995.00 1041.23
  Q 1002.44 1045.96 1010.97 1053.53
  Q 1011.72 1054.19 1016.02 1056.83
  C 1019.73 1059.11 1022.91 1061.77 1026.04 1064.47
  Q 1031.23 1068.95 1036.05 1072.42
  C 1043.88 1078.05 1050.69 1084.73 1058.24 1090.34
  Q 1068.33 1097.83 1075.46 1104.06
  Q 1080.04 1108.06 1083.54 1110.17
  A 6.69 6.46 81.0 0 1 1084.55 1110.93
  Q 1096.42 1121.64 1104.55 1131.20
  Q 1105.66 1132.51 1107.94 1136.69
  A 2.17 2.13 -59.0 0 1 1108.21 1137.81
  Z"
/>
<path fill="#ffc303" d="
  M 853.18 1281.22
  A 3.10 3.10 0.0 0 1 851.15 1283.33
  C 848.28 1284.27 841.92 1286.17 837.72 1286.78
  Q 831.71 1287.67 825.94 1289.55
  C 816.50 1292.64 805.90 1292.90 796.69 1294.71
  Q 788.43 1296.34 778.72 1297.35
  C 767.74 1298.48 760.36 1299.61 749.73 1299.52
  Q 711.41 1299.21 694.52 1299.55
  Q 688.32 1299.68 684.76 1299.09
  Q 679.13 1298.17 675.05 1297.97
  Q 666.03 1297.53 655.89 1295.27
  C 646.95 1293.27 637.22 1292.88 628.95 1290.31
  Q 626.74 1289.62 625.20 1288.46
  A 1.98 1.88 8.0 0 1 624.59 1287.69
  Q 624.09 1286.58 624.17 1284.50
  Q 624.45 1277.07 625.72 1270.01
  C 626.52 1265.54 626.57 1262.52 627.02 1256.92
  Q 627.13 1255.51 628.50 1247.36
  Q 629.30 1242.58 629.91 1237.77
  Q 632.02 1221.11 632.64 1212.41
  C 633.02 1207.02 634.20 1202.31 634.42 1197.09
  Q 634.53 1194.54 635.05 1190.97
  Q 636.31 1182.17 637.07 1174.06
  C 637.40 1170.48 639.36 1163.49 639.32 1158.35
  Q 639.29 1155.25 639.80 1152.45
  C 641.31 1144.07 641.58 1133.36 642.79 1125.01
  Q 643.81 1117.99 643.83 1116.86
  Q 643.91 1112.77 644.70 1108.69
  Q 645.56 1104.24 646.01 1096.46
  C 646.44 1088.72 648.51 1081.13 648.99 1073.52
  C 649.18 1070.48 650.07 1067.11 650.35 1063.64
  Q 651.50 1049.80 653.32 1039.96
  Q 653.74 1037.71 654.05 1035.28
  Q 655.09 1027.14 656.06 1019.17
  Q 656.67 1014.18 657.69 1010.31
  C 658.65 1006.68 658.40 1002.61 659.03 998.34
  C 661.17 984.00 661.53 978.49 664.09 969.05
  C 665.38 964.31 667.03 962.40 669.93 957.60
  A 2.79 2.73 86.6 0 1 670.52 956.92
  Q 676.28 952.29 682.77 954.16
  Q 686.47 955.22 689.72 956.20
  C 695.98 958.10 701.40 962.48 705.53 967.59
  Q 712.46 976.18 716.26 983.73
  A 5.99 5.87 -78.1 0 0 716.96 984.83
  Q 722.31 991.56 722.83 992.73
  C 724.83 997.22 727.75 1000.65 730.00 1004.89
  Q 734.93 1014.20 742.33 1029.48
  Q 745.03 1035.05 748.74 1040.93
  Q 751.27 1044.94 752.78 1047.98
  Q 753.49 1049.40 757.03 1054.94
  Q 760.30 1060.06 763.74 1066.97
  Q 767.61 1074.75 769.85 1079.27
  Q 777.71 1095.18 778.47 1097.34
  Q 784.35 1114.15 792.78 1130.21
  C 797.62 1139.44 800.15 1145.12 804.40 1153.43
  Q 806.16 1156.86 808.41 1162.99
  Q 812.52 1174.17 817.60 1184.45
  C 821.18 1191.69 823.34 1197.67 826.69 1206.46
  C 829.00 1212.53 832.55 1218.88 834.69 1223.64
  C 838.19 1231.44 840.59 1239.66 843.43 1247.29
  C 845.90 1253.91 847.24 1257.51 849.53 1262.93
  Q 852.42 1269.78 853.36 1277.53
  Q 853.62 1279.68 853.18 1281.22
  Z"
/>
</svg>
